{
	"asset":{
		"version":"2.0",
		"generator":"Houdini GLTF 2.0 Exporter"
	},
	"accessors":[
		{
			"bufferView":0,
			"componentType":5123,
			"count":24384,
			"type":"SCALAR",
			"min":[0
			],
			"max":[24383
			]
		},
		{
			"bufferView":1,
			"componentType":5126,
			"count":24384,
			"type":"VEC3",
			"min":[-0.183292627,0.452583611,-0.350566536
			],
			"max":[0.671764553,1.16171622,0.555237353
			]
		},
		{
			"bufferView":2,
			"componentType":5126,
			"count":24384,
			"type":"VEC2",
			"min":[0.745606005,0.0501869917
			],
			"max":[0.970544994,0.976810992
			]
		},
		{
			"bufferView":3,
			"componentType":5126,
			"count":24384,
			"type":"VEC3",
			"min":[-0.999824345,-0.997616053,-0.981261671
			],
			"max":[0.999641538,0.988777518,0.985672534
			]
		},
		{
			"bufferView":4,
			"componentType":5123,
			"count":24672,
			"type":"SCALAR",
			"min":[0
			],
			"max":[24671
			]
		},
		{
			"bufferView":5,
			"componentType":5126,
			"count":24672,
			"type":"VEC3",
			"min":[-0.624241173,0.483493388,-0.367324919
			],
			"max":[0.201979503,1.18067312,0.271444052
			]
		},
		{
			"bufferView":6,
			"componentType":5126,
			"count":24672,
			"type":"VEC2",
			"min":[0.743103027,0.0321530104
			],
			"max":[0.975776017,0.98951602
			]
		},
		{
			"bufferView":7,
			"componentType":5126,
			"count":24672,
			"type":"VEC3",
			"min":[-0.998925507,-0.994384885,-0.99949187
			],
			"max":[0.999784648,0.999504626,0.999397457
			]
		},
		{
			"bufferView":8,
			"componentType":5123,
			"count":11616,
			"type":"SCALAR",
			"min":[0
			],
			"max":[11615
			]
		},
		{
			"bufferView":9,
			"componentType":5126,
			"count":11616,
			"type":"VEC3",
			"min":[-0.0654019862,0.295714855,-0.0489287972
			],
			"max":[0.0612170473,0.546272397,0.0456490181
			]
		},
		{
			"bufferView":10,
			"componentType":5126,
			"count":11616,
			"type":"VEC2",
			"min":[0.0138050001,0.405731976
			],
			"max":[0.435068995,0.990667999
			]
		},
		{
			"bufferView":11,
			"componentType":5126,
			"count":11616,
			"type":"VEC3",
			"min":[-0.99998939,-0.644940972,-0.999997735
			],
			"max":[0.99998939,1,0.999996781
			]
		},
		{
			"bufferView":12,
			"componentType":5123,
			"count":28416,
			"type":"SCALAR",
			"min":[0
			],
			"max":[28415
			]
		},
		{
			"bufferView":13,
			"componentType":5126,
			"count":28416,
			"type":"VEC3",
			"min":[-0.150485128,0.00713088969,-0.150491402
			],
			"max":[0.150485128,0.325291216,0.150491402
			]
		},
		{
			"bufferView":14,
			"componentType":5126,
			"count":28416,
			"type":"VEC2",
			"min":[0.00848099962,0.0123180151
			],
			"max":[0.640317023,0.45658797
			]
		},
		{
			"bufferView":15,
			"componentType":5126,
			"count":28416,
			"type":"VEC3",
			"min":[-1,-1,-0.99998939
			],
			"max":[1,1,0.99998939
			]
		},
		{
			"bufferView":16,
			"componentType":5123,
			"count":14592,
			"type":"SCALAR",
			"min":[0
			],
			"max":[14591
			]
		},
		{
			"bufferView":17,
			"componentType":5126,
			"count":14592,
			"type":"VEC3",
			"min":[-0.162020594,-0.00177669001,-0.162020594
			],
			"max":[0.162020594,0.319249392,0.162020594
			]
		},
		{
			"bufferView":18,
			"componentType":5126,
			"count":14592,
			"type":"VEC2",
			"min":[0.449254006,0.472057998
			],
			"max":[0.729983985,0.990356028
			]
		},
		{
			"bufferView":19,
			"componentType":5126,
			"count":14592,
			"type":"VEC3",
			"min":[-0.999985099,-1,-0.999985099
			],
			"max":[0.999985099,0.935017705,0.999985099
			]
		},
		{
			"bufferView":20,
			"componentType":5125,
			"count":33792,
			"type":"SCALAR",
			"min":[0
			],
			"max":[33791
			]
		},
		{
			"bufferView":21,
			"componentType":5126,
			"count":33792,
			"type":"VEC3",
			"min":[-0.138299674,0.306711495,-0.13830556
			],
			"max":[0.138299674,0.321386904,0.13830556
			]
		},
		{
			"bufferView":22,
			"componentType":5126,
			"count":33792,
			"type":"VEC2",
			"min":[0.205152005,0.368902981
			],
			"max":[0.393934011,0.556535959
			]
		},
		{
			"bufferView":23,
			"componentType":5126,
			"count":33792,
			"type":"VEC3",
			"min":[-0.27913025,0.850451171,-0.471703172
			],
			"max":[0.359734476,0.999988556,0.441185117
			]
		}
	],
	"buffers":[
		{
			"uri":"Plante_data.bin",
			"byteLength":4741632,
			"name":"main_buffer"
		}
	],
	"bufferViews":[
		{
			"buffer":0,
			"byteLength":48768,
			"target":34963
		},
		{
			"buffer":0,
			"byteOffset":48768,
			"byteLength":292608,
			"target":34962
		},
		{
			"buffer":0,
			"byteOffset":341376,
			"byteLength":195072,
			"target":34962
		},
		{
			"buffer":0,
			"byteOffset":536448,
			"byteLength":292608,
			"target":34962
		},
		{
			"buffer":0,
			"byteOffset":829056,
			"byteLength":49344,
			"target":34963
		},
		{
			"buffer":0,
			"byteOffset":878400,
			"byteLength":296064,
			"target":34962
		},
		{
			"buffer":0,
			"byteOffset":1174464,
			"byteLength":197376,
			"target":34962
		},
		{
			"buffer":0,
			"byteOffset":1371840,
			"byteLength":296064,
			"target":34962
		},
		{
			"buffer":0,
			"byteOffset":1667904,
			"byteLength":23232,
			"target":34963
		},
		{
			"buffer":0,
			"byteOffset":1691136,
			"byteLength":139392,
			"target":34962
		},
		{
			"buffer":0,
			"byteOffset":1830528,
			"byteLength":92928,
			"target":34962
		},
		{
			"buffer":0,
			"byteOffset":1923456,
			"byteLength":139392,
			"target":34962
		},
		{
			"buffer":0,
			"byteOffset":2062848,
			"byteLength":56832,
			"target":34963
		},
		{
			"buffer":0,
			"byteOffset":2119680,
			"byteLength":340992,
			"target":34962
		},
		{
			"buffer":0,
			"byteOffset":2460672,
			"byteLength":227328,
			"target":34962
		},
		{
			"buffer":0,
			"byteOffset":2688000,
			"byteLength":340992,
			"target":34962
		},
		{
			"buffer":0,
			"byteOffset":3028992,
			"byteLength":29184,
			"target":34963
		},
		{
			"buffer":0,
			"byteOffset":3058176,
			"byteLength":175104,
			"target":34962
		},
		{
			"buffer":0,
			"byteOffset":3233280,
			"byteLength":116736,
			"target":34962
		},
		{
			"buffer":0,
			"byteOffset":3350016,
			"byteLength":175104,
			"target":34962
		},
		{
			"buffer":0,
			"byteOffset":3525120,
			"byteLength":135168,
			"target":34963
		},
		{
			"buffer":0,
			"byteOffset":3660288,
			"byteLength":405504,
			"target":34962
		},
		{
			"buffer":0,
			"byteOffset":4065792,
			"byteLength":270336,
			"target":34962
		},
		{
			"buffer":0,
			"byteOffset":4336128,
			"byteLength":405504,
			"target":34962
		}
	],
	"nodes":[
		{
			"name":"indoor_plant_02",
			"mesh":0
		}
	],
	"meshes":[
		{
			"primitives":[
				{
					"attributes":{
						"NORMAL":3,
						"TEXCOORD_0":2,
						"POSITION":1
					},
					"indices":0,
					"material":0
				},
				{
					"attributes":{
						"NORMAL":7,
						"TEXCOORD_0":6,
						"POSITION":5
					},
					"indices":4,
					"material":1
				},
				{
					"attributes":{
						"NORMAL":11,
						"TEXCOORD_0":10,
						"POSITION":9
					},
					"indices":8,
					"material":2
				},
				{
					"attributes":{
						"NORMAL":15,
						"TEXCOORD_0":14,
						"POSITION":13
					},
					"indices":12,
					"material":3
				},
				{
					"attributes":{
						"NORMAL":19,
						"TEXCOORD_0":18,
						"POSITION":17
					},
					"indices":16,
					"material":4
				},
				{
					"attributes":{
						"NORMAL":23,
						"TEXCOORD_0":22,
						"POSITION":21
					},
					"indices":20,
					"material":5
				}
			]
		}
	],
	"materials":[
		{
			"name":"IDP_leaves__indoor_plant_2_NOR_jpg",
			"pbrMetallicRoughness":{
				"baseColorFactor":[0.800000012,0.800000012,0.800000012,1
				],
				"metallicFactor":0,
				"baseColorTexture":{
					"index":0
				}
			},
			"normalTexture":{
				"index":0
			},
			"emissiveFactor":[0.800000012,0.800000012,0.800000012
			]
		},
		{
			"name":"IDP_leaves__indoor_plant_2_COL_jpg",
			"pbrMetallicRoughness":{
				"baseColorFactor":[0.800000012,0.800000012,0.800000012,1
				],
				"metallicFactor":0,
				"baseColorTexture":{
					"index":0
				}
			},
			"normalTexture":{
				"index":0
			},
			"emissiveFactor":[0.800000012,0.800000012,0.800000012
			]
		},
		{
			"name":"IDP_root__indoor_plant_2_COL_jpg",
			"pbrMetallicRoughness":{
				"baseColorFactor":[0.800000012,0.800000012,0.800000012,1
				],
				"metallicFactor":0,
				"baseColorTexture":{
					"index":0
				}
			},
			"normalTexture":{
				"index":1
			},
			"emissiveFactor":[0.800000012,0.800000012,0.800000012
			]
		},
		{
			"name":"IDP_root__indoor_plant_2_NOR_jpg",
			"pbrMetallicRoughness":{
				"baseColorFactor":[0.800000012,0.800000012,0.800000012,1
				],
				"metallicFactor":0,
				"baseColorTexture":{
					"index":0
				}
			},
			"normalTexture":{
				"index":0
			},
			"emissiveFactor":[0.800000012,0.800000012,0.800000012
			]
		},
		{
			"name":"IDP_Pot__indoor_plant_2_NOR_jpg",
			"pbrMetallicRoughness":{
				"baseColorFactor":[0.800000012,0.800000012,0.800000012,1
				],
				"metallicFactor":0,
				"baseColorTexture":{
					"index":0
				}
			},
			"normalTexture":{
				"index":1
			},
			"emissiveFactor":[0.800000012,0.800000012,0.800000012
			]
		},
		{
			"name":"IDP_ground__indoor_plant_2_NOR_jpg",
			"pbrMetallicRoughness":{
				"baseColorFactor":[0.200000003,0.200000003,0.200000003,1
				],
				"metallicFactor":0,
				"roughnessFactor":0.300000012,
				"baseColorTexture":{
					"index":0
				}
			},
			"normalTexture":{
				"index":0
			}
		}
	],
	"scenes":[
		{
			"nodes":[0
			]
		}
	],
	"textures":[
		{
			"source":0
		},
		{
			"source":1
		}
	],
	"images":[
		{
			"uri":"indoor_plant_2_COL.png",
			"mimeType":"image/png"
		},
		{
			"uri":"indoor_plant_2_NOR.png",
			"mimeType":"image/png"
		}
	],
	"scene":0
}
